<svg width="37" height="37" viewBox="27.75 20.8125 37 37" fill="none" xmlns="http://www.w3.org/2000/svg">
  <rect x="27.75" y="20.8125" width="37" height="37" rx="18.5" fill="url(#paint0_linear)" />
  <path d="M43.6484 39.3131L45.3828 41.0474L48.8516 37.5787M53.1875 40.1801C53.1875 44.516 50.1523 46.684 46.5448 47.9414C46.3559 48.0054 46.1507 48.0024 45.9638 47.9327C42.3477 46.684 39.3125 44.516 39.3125 40.1801V34.1098C39.3125 33.6312 39.7011 33.2426 40.1797 33.2426C41.9141 33.2426 44.082 32.202 45.5909 30.8838C45.9705 30.5596 46.5295 30.5596 46.9091 30.8838C48.4266 32.2106 50.5859 33.2426 52.3203 33.2426C52.7989 33.2426 53.1875 33.6312 53.1875 34.1098V40.1801Z" 
    stroke="white" stroke-width="1.73438" stroke-linecap="round" stroke-linejoin="round"/>
  <defs>
    <linearGradient id="paint0_linear" x1="27.75" y1="20.8125" x2="64.75" y2="57.8125" gradientUnits="userSpaceOnUse">
      <stop stop-color="#003366"/>
      <stop offset="1" stop-color="#00E0C2"/>
    </linearGradient>
  </defs>
</svg>
